<svg width="128" height="128" viewBox="0 0 128 128" fill="none" xmlns="http://www.w3.org/2000/svg">
<rect width="128" height="128" rx="64" fill="#212330"/>
<path d="M52.392 16.1602C51.6404 13.0623 53.5419 9.90937 56.7015 9.48631C67.2859 8.06912 78.1004 9.75982 87.8023 14.4172C99.2459 19.9107 108.437 29.1936 113.817 40.6912C119.196 52.1889 120.433 65.1934 117.318 77.4991C114.202 89.8047 106.926 100.654 96.7231 108.206C86.5203 115.759 74.0192 119.55 61.3401 118.936C48.661 118.322 36.5846 113.341 27.1592 104.838C17.7338 96.3353 11.5397 84.834 9.62757 72.2849C8.00647 61.6458 9.54766 50.809 13.994 41.0999C15.3214 38.2016 18.8922 37.3037 21.6355 38.9273V38.9273C24.3789 40.5509 25.2469 44.0807 24.0009 47.0149C20.8659 54.3976 19.8205 62.5426 21.04 70.5459C22.5508 80.4611 27.4448 89.5484 34.8918 96.2665C42.3389 102.985 51.8806 106.92 61.8984 107.405C71.9162 107.89 81.7934 104.895 89.8547 98.9277C97.916 92.9605 103.665 84.3885 106.127 74.6657C108.588 64.9429 107.611 54.6679 103.36 45.5836C99.11 36.4992 91.848 29.1648 82.8063 24.8243C75.508 21.3208 67.4128 19.942 59.4364 20.7844C56.2662 21.1192 53.1437 19.2582 52.392 16.1602V16.1602Z" fill="url(#paint0_linear_5_42)"/>
<path d="M43 66.7882L54.6461 77.9685C55.0388 78.3455 55.6609 78.3391 56.0458 77.9542L85 49" stroke="url(#paint1_linear_5_42)" stroke-width="10" stroke-linecap="round"/>
<defs>
<linearGradient id="paint0_linear_5_42" x1="29.1835" y1="16.0642" x2="99.3211" y2="109.917" gradientUnits="userSpaceOnUse">
<stop offset="0.266537" stop-color="#F1DF10"/>
<stop offset="1" stop-color="#FA644F"/>
</linearGradient>
<linearGradient id="paint1_linear_5_42" x1="56.7615" y1="79.6928" x2="83.8894" y2="48.7507" gradientUnits="userSpaceOnUse">
<stop stop-color="#17F1C9"/>
<stop offset="1" stop-color="#1CEFAF"/>
</linearGradient>
</defs>
</svg>
